<svg width="110" height="129" viewBox="0 0 110 129" fill="none" xmlns="http://www.w3.org/2000/svg">
<path d="M110 74C110 104.376 85.3757 129 55 129C24.6243 129 0 104.376 0 74C0 43.6243 24.6243 19 55 19C85.3757 19 110 43.6243 110 74Z" fill="#036986"/>
<path d="M61.899 118.33C61.074 118.33 60.6615 117.917 60.6615 117.092V109.37C60.6615 108.71 60.909 108.347 61.404 108.281L68.631 106.45L73.779 103.727C74.274 103.463 74.5215 102.952 74.5215 102.193V94.0747L69.8685 98.3812C69.3075 98.9422 68.6475 99.2227 67.8885 99.2227L59.4735 99.5197C58.7145 99.5197 58.0545 99.2557 57.4935 98.7277L48.435 89.6197C47.874 89.0917 47.5935 88.4317 47.5935 87.6397V60.1177C47.5935 59.3257 47.874 58.6657 48.435 58.1377L58.335 48.2377C58.896 47.6767 59.556 47.3962 60.315 47.3962H86.7975C87.6225 47.3962 88.035 47.8087 88.035 48.6337V108.133C88.035 109.024 87.7545 109.684 87.1935 110.113L80.61 114.32L72.294 117.785C71.799 117.983 71.4195 118.115 71.1555 118.181C70.9245 118.28 70.5285 118.33 69.9675 118.33H61.899ZM66.1065 88.8277H69.5715C70.6275 88.8277 71.3535 88.6132 71.7495 88.1842C72.1455 87.7552 72.3435 86.9962 72.3435 85.9072V58.9297H66.1065C65.0175 58.9297 64.275 59.1442 63.879 59.5732C63.483 60.0022 63.285 60.7612 63.285 61.8502V85.9072C63.285 86.9962 63.483 87.7552 63.879 88.1842C64.275 88.6132 65.0175 88.8277 66.1065 88.8277Z" fill="#3CFF00"/>
<path d="M24.514 99C23.689 99 23.2765 98.5875 23.2765 97.7625V45.6885C23.2765 44.9295 23.5405 44.2695 24.0685 43.7085L33.9685 33.8085C34.5295 33.2805 35.1895 33.0165 35.9485 33.0165H46.591C47.416 33.0165 47.8285 33.429 47.8285 34.254V45.7875C47.8285 46.6125 47.416 47.025 46.591 47.025H38.9185V97.7625C38.9185 98.5875 38.506 99 37.681 99H24.514ZM20.2075 68.0625C19.3825 68.0625 18.97 67.65 18.97 66.825V57.7665C18.97 56.9415 19.3825 56.529 20.2075 56.529H46.591C47.416 56.529 47.8285 56.9415 47.8285 57.7665V66.825C47.8285 67.65 47.416 68.0625 46.591 68.0625H20.2075Z" fill="black"/>
</svg>
