<svg width="78" height="156" viewBox="0 0 78 156" fill="none" xmlns="http://www.w3.org/2000/svg">
<path d="M45.899 127.484C45.074 127.484 44.6615 127.071 44.6615 126.246V118.524C44.6615 117.864 44.909 117.501 45.404 117.435L52.631 115.604L57.779 112.881C58.274 112.617 58.5215 112.106 58.5215 111.347V103.228L53.8685 107.535C53.3075 108.096 52.6475 108.376 51.8885 108.376L43.4735 108.673C42.7145 108.673 42.0545 108.409 41.4935 107.881L32.435 98.7735C31.874 98.2455 31.5935 97.5855 31.5935 96.7935V69.2715C31.5935 68.4795 31.874 67.8195 32.435 67.2915L42.335 57.3915C42.896 56.8305 43.556 56.55 44.315 56.55H70.7975C71.6225 56.55 72.035 56.9625 72.035 57.7875V117.287C72.035 118.178 71.7545 118.838 71.1935 119.267L64.61 123.474L56.294 126.939C55.799 127.137 55.4195 127.269 55.1555 127.335C54.9245 127.434 54.5285 127.484 53.9675 127.484H45.899ZM50.1065 97.9815H53.5715C54.6275 97.9815 55.3535 97.767 55.7495 97.338C56.1455 96.909 56.3435 96.15 56.3435 95.061V68.0835H50.1065C49.0175 68.0835 48.275 68.298 47.879 68.727C47.483 69.156 47.285 69.915 47.285 71.004V95.061C47.285 96.15 47.483 96.909 47.879 97.338C48.275 97.767 49.0175 97.9815 50.1065 97.9815Z" fill="#3CFF00"/>
<path d="M8.514 99C7.689 99 7.2765 98.5875 7.2765 97.7625V45.6885C7.2765 44.9295 7.5405 44.2695 8.0685 43.7085L17.9685 33.8085C18.5295 33.2805 19.1895 33.0165 19.9485 33.0165H30.591C31.416 33.0165 31.8285 33.429 31.8285 34.254V45.7875C31.8285 46.6125 31.416 47.025 30.591 47.025H22.9185V97.7625C22.9185 98.5875 22.506 99 21.681 99H8.514ZM4.2075 68.0625C3.3825 68.0625 2.97 67.65 2.97 66.825V57.7665C2.97 56.9415 3.3825 56.529 4.2075 56.529H30.591C31.416 56.529 31.8285 56.9415 31.8285 57.7665V66.825C31.8285 67.65 31.416 68.0625 30.591 68.0625H4.2075Z" fill="black"/>
</svg>
